<?xml version="1.0" encoding="UTF-8" standalone="no"?>
<!DOCTYPE svg PUBLIC "-//W3C//DTD SVG 1.1//EN"
 "http://www.w3.org/Graphics/SVG/1.1/DTD/svg11.dtd">
<!-- Generated by graphviz version 2.43.0 (0)
 -->
<!-- Title: G Pages: 1 -->
<svg width="289pt" height="152pt"
 viewBox="0.00 0.00 288.88 152.00" xmlns="http://www.w3.org/2000/svg" xmlns:xlink="http://www.w3.org/1999/xlink">
<g id="graph0" class="graph" transform="scale(1 1) rotate(0) translate(4 148)">
<title>G</title>
<polygon fill="white" stroke="transparent" points="-4,4 -4,-148 284.88,-148 284.88,4 -4,4"/>
<!-- Item -->
<g id="node1" class="node">
<title>Item</title>
<ellipse fill="none" stroke="black" cx="32.5" cy="-72" rx="32.49" ry="18"/>
<text text-anchor="middle" x="32.5" y="-68.3" font-family="Times,serif" font-size="14.00">Item</text>
</g>
<!-- Checkpoint_1 -->
<g id="node2" class="node">
<title>Checkpoint_1</title>
<ellipse fill="none" stroke="black" cx="207.44" cy="-126" rx="73.39" ry="18"/>
<text text-anchor="middle" x="207.44" y="-122.3" font-family="Times,serif" font-size="14.00">Checkpoint_1</text>
</g>
<!-- Item&#45;&gt;Checkpoint_1 -->
<g id="edge1" class="edge">
<title>Item&#45;&gt;Checkpoint_1</title>
<path fill="none" stroke="black" d="M59.28,-82.4C66.87,-85.33 75.22,-88.41 82.99,-91 103.61,-97.86 126.44,-104.58 146.8,-110.26"/>
<polygon fill="black" stroke="black" points="146,-113.67 156.57,-112.96 147.87,-106.92 146,-113.67"/>
<text text-anchor="middle" x="99.49" y="-103.8" font-family="Times,serif" font-size="14.00">scan</text>
</g>
<!-- Checkpoint_2 -->
<g id="node3" class="node">
<title>Checkpoint_2</title>
<ellipse fill="none" stroke="black" cx="207.44" cy="-72" rx="73.39" ry="18"/>
<text text-anchor="middle" x="207.44" y="-68.3" font-family="Times,serif" font-size="14.00">Checkpoint_2</text>
</g>
<!-- Item&#45;&gt;Checkpoint_2 -->
<g id="edge2" class="edge">
<title>Item&#45;&gt;Checkpoint_2</title>
<path fill="none" stroke="black" d="M65.22,-72C81.73,-72 102.76,-72 123.52,-72"/>
<polygon fill="black" stroke="black" points="123.66,-75.5 133.66,-72 123.66,-68.5 123.66,-75.5"/>
<text text-anchor="middle" x="99.49" y="-75.8" font-family="Times,serif" font-size="14.00">scan</text>
</g>
<!-- Checkpoint_3 -->
<g id="node4" class="node">
<title>Checkpoint_3</title>
<ellipse fill="none" stroke="black" cx="207.44" cy="-18" rx="73.39" ry="18"/>
<text text-anchor="middle" x="207.44" y="-14.3" font-family="Times,serif" font-size="14.00">Checkpoint_3</text>
</g>
<!-- Item&#45;&gt;Checkpoint_3 -->
<g id="edge3" class="edge">
<title>Item&#45;&gt;Checkpoint_3</title>
<path fill="none" stroke="black" d="M59.28,-61.6C66.87,-58.67 75.22,-55.59 82.99,-53 103.61,-46.14 126.44,-39.42 146.8,-33.74"/>
<polygon fill="black" stroke="black" points="147.87,-37.08 156.57,-31.04 146,-30.33 147.87,-37.08"/>
<text text-anchor="middle" x="99.49" y="-56.8" font-family="Times,serif" font-size="14.00">scan</text>
</g>
</g>
</svg>
