<?xml version="1.0" encoding="UTF-8" standalone="no"?>
<!DOCTYPE svg PUBLIC "-//W3C//DTD SVG 1.1//EN"
 "http://www.w3.org/Graphics/SVG/1.1/DTD/svg11.dtd">
<!-- Generated by graphviz version 2.43.0 (0)
 -->
<!-- Title: G Pages: 1 -->
<svg width="419pt" height="165pt"
 viewBox="0.00 0.00 418.58 164.92" xmlns="http://www.w3.org/2000/svg" xmlns:xlink="http://www.w3.org/1999/xlink">
<g id="graph0" class="graph" transform="scale(1 1) rotate(0) translate(4 160.92)">
<title>G</title>
<polygon fill="white" stroke="transparent" points="-4,4 -4,-160.92 414.58,-160.92 414.58,4 -4,4"/>
<!-- Doc_A -->
<g id="node1" class="node">
<title>Doc_A</title>
<ellipse fill="none" stroke="black" cx="39" cy="-75.92" rx="38.99" ry="18"/>
<text text-anchor="middle" x="39" y="-72.22" font-family="Times,serif" font-size="14.00">Doc_A</text>
</g>
<!-- Doc_B -->
<g id="node2" class="node">
<title>Doc_B</title>
<ellipse fill="none" stroke="black" cx="370.93" cy="-90.92" rx="39.79" ry="18"/>
<text text-anchor="middle" x="370.93" y="-87.22" font-family="Times,serif" font-size="14.00">Doc_B</text>
</g>
<!-- Doc_A&#45;&gt;Doc_B -->
<g id="edge1" class="edge">
<title>Doc_A&#45;&gt;Doc_B</title>
<path fill="none" stroke="black" d="M55.5,-92.3C65.92,-102.17 80.54,-113.95 95.99,-119.92 186.06,-154.77 220.28,-145.94 313.29,-119.92 321.53,-117.62 329.98,-114.05 337.74,-110.2"/>
<polygon fill="black" stroke="black" points="339.6,-113.17 346.82,-105.42 336.34,-106.98 339.6,-113.17"/>
<text text-anchor="middle" x="204.64" y="-145.72" font-family="Times,serif" font-size="14.00">label_1</text>
</g>
<!-- Doc_A&#45;&gt;Doc_B -->
<g id="edge2" class="edge">
<title>Doc_A&#45;&gt;Doc_B</title>
<path fill="none" stroke="black" d="M75.14,-82.98C82.03,-84.14 89.22,-85.2 95.99,-85.92 174.42,-94.3 266.18,-93.92 321.09,-92.62"/>
<polygon fill="black" stroke="black" points="321.33,-96.11 331.24,-92.36 321.15,-89.12 321.33,-96.11"/>
<text text-anchor="middle" x="204.64" y="-96.72" font-family="Times,serif" font-size="14.00">label_2</text>
</g>
<!-- Doc_C -->
<g id="node3" class="node">
<title>Doc_C</title>
<ellipse fill="none" stroke="black" cx="204.64" cy="-51.92" rx="39.79" ry="18"/>
<text text-anchor="middle" x="204.64" y="-48.22" font-family="Times,serif" font-size="14.00">Doc_C</text>
</g>
<!-- Doc_A&#45;&gt;Doc_C -->
<g id="edge5" class="edge">
<title>Doc_A&#45;&gt;Doc_C</title>
<path fill="none" stroke="black" d="M76.31,-70.6C99.9,-67.14 130.88,-62.59 156.38,-58.85"/>
<polygon fill="black" stroke="black" points="157.19,-62.27 166.57,-57.36 156.17,-55.35 157.19,-62.27"/>
<text text-anchor="middle" x="121.49" y="-70.72" font-family="Times,serif" font-size="14.00">label_3</text>
</g>
<!-- Doc_A&#45;&gt;Doc_C -->
<g id="edge6" class="edge">
<title>Doc_A&#45;&gt;Doc_C</title>
<path fill="none" stroke="black" d="M58.91,-60.36C69.2,-52.91 82.55,-44.78 95.99,-40.92 117,-34.9 141.15,-36.62 161.24,-40.29"/>
<polygon fill="black" stroke="black" points="160.55,-43.72 171.04,-42.3 161.95,-36.87 160.55,-43.72"/>
<text text-anchor="middle" x="121.49" y="-44.72" font-family="Times,serif" font-size="14.00">label_2</text>
</g>
<!-- Doc_B&#45;&gt;Doc_A -->
<g id="edge3" class="edge">
<title>Doc_B&#45;&gt;Doc_A</title>
<path fill="none" stroke="black" d="M352.46,-74.9C329.6,-55.14 287.36,-22.6 244.29,-9.92 180.31,8.91 154.89,-1.63 95.99,-32.92 85.38,-38.56 74.69,-46.18 65.54,-53.44"/>
<polygon fill="black" stroke="black" points="63.12,-50.9 57.6,-59.94 67.56,-56.31 63.12,-50.9"/>
<text text-anchor="middle" x="204.64" y="-13.72" font-family="Times,serif" font-size="14.00">label_2</text>
</g>
<!-- Doc_C&#45;&gt;Doc_B -->
<g id="edge4" class="edge">
<title>Doc_C&#45;&gt;Doc_B</title>
<path fill="none" stroke="black" d="M240.57,-59.91C261.65,-64.75 289.03,-71.11 313.29,-76.92 317.39,-77.91 321.65,-78.94 325.92,-79.98"/>
<polygon fill="black" stroke="black" points="325.26,-83.42 335.8,-82.41 326.92,-76.62 325.26,-83.42"/>
<text text-anchor="middle" x="287.79" y="-80.72" font-family="Times,serif" font-size="14.00">label_2</text>
</g>
</g>
</svg>
