<?xml version="1.0" encoding="UTF-8" standalone="no"?><svg xmlns="http://www.w3.org/2000/svg" xmlns:xlink="http://www.w3.org/1999/xlink" contentScriptType="application/ecmascript" contentStyleType="text/css" height="278px" preserveAspectRatio="none" style="width:614px;height:278px;" version="1.1" viewBox="0 0 614 278" width="614px" zoomAndPan="magnify"><defs><filter height="300%" id="fgc6t4hoskr1w" width="300%" x="-1" y="-1"><feGaussianBlur result="blurOut" stdDeviation="2.0"/><feColorMatrix in="blurOut" result="blurOut2" type="matrix" values="0 0 0 0 0 0 0 0 0 0 0 0 0 0 0 0 0 0 .4 0"/><feOffset dx="4.0" dy="4.0" in="blurOut2" result="blurOut3"/><feBlend in="SourceGraphic" in2="blurOut3" mode="normal"/></filter></defs><g><rect fill="#FEFECE" filter="url(#fgc6t4hoskr1w)" height="36.2969" rx="12.5" ry="12.5" style="stroke: #A80036; stroke-width: 1.5;" width="93" x="10" y="125.5566"/><text fill="#000000" font-family="sans-serif" font-size="14" lengthAdjust="spacingAndGlyphs" textLength="73" x="20" y="148.5518">Document</text><rect fill="#FEFECE" filter="url(#fgc6t4hoskr1w)" height="36.2969" rx="12.5" ry="12.5" style="stroke: #A80036; stroke-width: 1.5;" width="70" x="153" y="48.1484"/><text fill="#000000" font-family="sans-serif" font-size="14" lengthAdjust="spacingAndGlyphs" textLength="50" x="163" y="71.1436">Header</text><rect fill="#FEFECE" filter="url(#fgc6t4hoskr1w)" height="36.2969" rx="12.5" ry="12.5" style="stroke: #A80036; stroke-width: 1.5;" width="65" x="273" y="20"/><text fill="#000000" font-family="sans-serif" font-size="14" lengthAdjust="spacingAndGlyphs" textLength="45" x="283" y="42.9951">Owner</text><path d="M223,66.2969 L233,66.2969 C248,66.2969 248,38.1484 263,38.1484 L273,38.1484 " fill="none" style="stroke: #A80036; stroke-width: 1.0;"/><rect fill="#FEFECE" filter="url(#fgc6t4hoskr1w)" height="36.2969" rx="12.5" ry="12.5" style="stroke: #A80036; stroke-width: 1.5;" width="199" x="273" y="76.2969"/><text fill="#000000" font-family="sans-serif" font-size="14" lengthAdjust="spacingAndGlyphs" textLength="179" x="283" y="99.292">Created &amp; Updated Dates</text><path d="M223,66.2969 L233,66.2969 C248,66.2969 248,94.4453 263,94.4453 L273,94.4453 " fill="none" style="stroke: #A80036; stroke-width: 1.0;"/><path d="M103,143.7051 L113,143.7051 C128,143.7051 128,66.2969 143,66.2969 L153,66.2969 " fill="none" style="stroke: #A80036; stroke-width: 1.0;"/><rect fill="#FEFECE" filter="url(#fgc6t4hoskr1w)" height="36.2969" rx="12.5" ry="12.5" style="stroke: #A80036; stroke-width: 1.5;" width="136" x="153" y="174.8164"/><text fill="#000000" font-family="sans-serif" font-size="14" lengthAdjust="spacingAndGlyphs" textLength="116" x="163" y="197.8115">Content Group 1</text><rect fill="#FEFECE" filter="url(#fgc6t4hoskr1w)" height="36.2969" rx="12.5" ry="12.5" style="stroke: #A80036; stroke-width: 1.5;" width="123" x="339" y="160.7422"/><text fill="#000000" font-family="sans-serif" font-size="14" lengthAdjust="spacingAndGlyphs" textLength="103" x="349" y="183.7373">Content Item 1</text><rect fill="#FEFECE" filter="url(#fgc6t4hoskr1w)" height="36.2969" rx="12.5" ry="12.5" style="stroke: #A80036; stroke-width: 1.5;" width="91" x="512" y="132.5938"/><text fill="#000000" font-family="sans-serif" font-size="14" lengthAdjust="spacingAndGlyphs" textLength="71" x="522" y="155.5889">Key (label)</text><path d="M462,178.8906 L472,178.8906 C487,178.8906 487,150.7422 502,150.7422 L512,150.7422 " fill="none" style="stroke: #A80036; stroke-width: 1.0;"/><rect fill="#FEFECE" filter="url(#fgc6t4hoskr1w)" height="36.2969" rx="12.5" ry="12.5" style="stroke: #A80036; stroke-width: 1.5;" width="58" x="512" y="188.8906"/><text fill="#000000" font-family="sans-serif" font-size="14" lengthAdjust="spacingAndGlyphs" textLength="38" x="522" y="211.8857">Value</text><path d="M462,178.8906 L472,178.8906 C487,178.8906 487,207.0391 502,207.0391 L512,207.0391 " fill="none" style="stroke: #A80036; stroke-width: 1.0;"/><path d="M289,192.9648 L299,192.9648 C314,192.9648 314,178.8906 329,178.8906 L339,178.8906 " fill="none" style="stroke: #A80036; stroke-width: 1.0;"/><rect fill="#FEFECE" filter="url(#fgc6t4hoskr1w)" height="36.2969" rx="12.5" ry="12.5" style="stroke: #A80036; stroke-width: 1.5;" width="123" x="339" y="217.0391"/><text fill="#000000" font-family="sans-serif" font-size="14" lengthAdjust="spacingAndGlyphs" textLength="103" x="349" y="240.0342">Content Item n</text><path d="M289,192.9648 L299,192.9648 C314,192.9648 314,235.1875 329,235.1875 L339,235.1875 " fill="none" style="stroke: #A80036; stroke-width: 1.0;"/><path d="M103,143.7051 L113,143.7051 C128,143.7051 128,192.9648 143,192.9648 L153,192.9648 " fill="none" style="stroke: #A80036; stroke-width: 1.0;"/><rect fill="#FEFECE" filter="url(#fgc6t4hoskr1w)" height="36.2969" rx="12.5" ry="12.5" style="stroke: #A80036; stroke-width: 1.5;" width="136" x="153" y="231.1133"/><text fill="#000000" font-family="sans-serif" font-size="14" lengthAdjust="spacingAndGlyphs" textLength="116" x="163" y="254.1084">Content Group n</text><path d="M103,143.7051 L113,143.7051 C128,143.7051 128,249.2617 143,249.2617 L153,249.2617 " fill="none" style="stroke: #A80036; stroke-width: 1.0;"/></g></svg>