<?xml version="1.0" encoding="UTF-8" standalone="no"?><svg xmlns="http://www.w3.org/2000/svg" xmlns:xlink="http://www.w3.org/1999/xlink" contentScriptType="application/ecmascript" contentStyleType="text/css" height="123px" preserveAspectRatio="none" style="width:556px;height:123px;" version="1.1" viewBox="0 0 556 123" width="556px" zoomAndPan="magnify"><defs><filter height="300%" id="ftei7y3czrxuc" width="300%" x="-1" y="-1"><feGaussianBlur result="blurOut" stdDeviation="2.0"/><feColorMatrix in="blurOut" result="blurOut2" type="matrix" values="0 0 0 0 0 0 0 0 0 0 0 0 0 0 0 0 0 0 .4 0"/><feOffset dx="4.0" dy="4.0" in="blurOut2" result="blurOut3"/><feBlend in="SourceGraphic" in2="blurOut3" mode="normal"/></filter></defs><g><rect fill="#FEFECE" filter="url(#ftei7y3czrxuc)" height="36.2969" rx="12.5" ry="12.5" style="stroke: #A80036; stroke-width: 1.5;" width="93" x="10" y="48.1484"/><text fill="#000000" font-family="sans-serif" font-size="14" lengthAdjust="spacingAndGlyphs" textLength="73" x="20" y="71.1436">Document</text><rect fill="#FEFECE" filter="url(#ftei7y3czrxuc)" height="36.2969" rx="12.5" ry="12.5" style="stroke: #A80036; stroke-width: 1.5;" width="177" x="153" y="48.1484"/><text fill="#000000" font-family="sans-serif" font-size="14" lengthAdjust="spacingAndGlyphs" textLength="157" x="163" y="71.1436">system Content Group</text><rect fill="#FEFECE" filter="url(#ftei7y3czrxuc)" height="36.2969" rx="12.5" ry="12.5" style="stroke: #A80036; stroke-width: 1.5;" width="95" x="380" y="20"/><text fill="#000000" font-family="sans-serif" font-size="14" lengthAdjust="spacingAndGlyphs" textLength="75" x="390" y="42.9951">node_label</text><path d="M330,66.2969 L340,66.2969 C355,66.2969 355,38.1484 370,38.1484 L380,38.1484 " fill="none" style="stroke: #A80036; stroke-width: 1.0;"/><rect fill="#FEFECE" filter="url(#ftei7y3czrxuc)" height="36.2969" rx="12.5" ry="12.5" style="stroke: #A80036; stroke-width: 1.5;" width="165" x="380" y="76.2969"/><text fill="#000000" font-family="sans-serif" font-size="14" lengthAdjust="spacingAndGlyphs" textLength="145" x="390" y="99.292">type (`eosio::name`)</text><path d="M330,66.2969 L340,66.2969 C355,66.2969 355,94.4453 370,94.4453 L380,94.4453 " fill="none" style="stroke: #A80036; stroke-width: 1.0;"/><path d="M103,66.2969 L113,66.2969 C128,66.2969 128,66.2969 143,66.2969 L153,66.2969 " fill="none" style="stroke: #A80036; stroke-width: 1.0;"/></g></svg>